<?xml version="1.0" standalone="no"?>
<!DOCTYPE svg PUBLIC "-//W3C//DTD SVG 1.1//EN" "http://www.w3.org/Graphics/SVG/1.1/DTD/svg11.dtd" >
<!--
2013-9-30: Created.
-->
<svg>
<metadata>
Created by iconfont
</metadata>
<defs>

<font id="iconfont" horiz-adv-x="1024" >
  <font-face
    font-family="iconfont"
    font-weight="500"
    font-stretch="normal"
    units-per-em="1024"
    ascent="896"
    descent="-128"
  />
    <missing-glyph />
    
    <glyph glyph-name="close" unicode="&#58950;" d="M557.312 382.75199999999995l265.28 263.904c12.544 12.48 12.608 32.704 0.128 45.248-12.512 12.576-32.704 12.608-45.248 0.128l-265.344-263.936-263.04 263.84C236.64 704.4159999999999 216.384 704.48 203.84 692 191.328 679.52 191.296 659.264 203.776 646.72l262.976-263.776L201.6 119.20000000000005c-12.544-12.48-12.608-32.704-0.128-45.248 6.24-6.272 14.464-9.44 22.688-9.44 8.16 0 16.32 3.104 22.56 9.312l265.216 263.808 265.44-266.24c6.24-6.272 14.432-9.408 22.656-9.408 8.192 0 16.352 3.136 22.592 9.344 12.512 12.48 12.544 32.704 0.064 45.248L557.312 382.75199999999995z"  horiz-adv-x="1024" />

    
    <glyph glyph-name="arrow-right" unicode="&#58901;" d="M693.765275 362.478847l-324.709383-309.795719c-10.653641-11.100826-27.931143-11.100826-38.590923 0-10.658757 11.099802-10.658757 29.096688 0 40.196491l305.139675 291.12038L330.463945 675.12652c-10.658757 11.099802-10.658757 29.086455 0 40.191374 10.659781 11.099802 27.937283 11.099802 38.590923 0l324.709383-309.790602c5.682419-5.92392 8.108678-13.778818 7.722892-21.527292C701.873953 376.247432 699.447694 368.386394 693.765275 362.478847z"  horiz-adv-x="1024" />

    
    <glyph glyph-name="arrow-down" unicode="&#58902;" d="M465.094202 84.04951000000005L69.649801 497.359814c-14.178931 13.55983-14.178931 35.553751 0 49.119721 14.165628 13.56597 37.133735 13.56597 51.305503 0l371.614669-388.403031 371.621832 388.403031c14.173814 13.56597 37.140898 13.56597 51.313689 0 14.171768-13.56597 14.171768-35.55989 0-49.119721L520.046768 84.04951000000005c-7.556093-7.230682-17.585517-10.32209-27.476795-9.827833C482.678696 73.72742100000005 472.649272 76.81780600000002 465.094202 84.04951000000005z"  horiz-adv-x="1024" />

    
    <glyph glyph-name="loading" unicode="&#59098;" d="M874.666667 362.666667l-192 0c-12.8 0-21.333333 8.533333-21.333333 21.333333 0 12.8 8.533333 21.333333 21.333333 21.333333l192 0c12.8 0 21.333333-8.533333 21.333333-21.333333C896 371.2 887.466667 362.666667 874.666667 362.666667zM648.533333 488.533333c-8.533333-8.533333-21.333333-8.533333-29.866667 0-8.533333 8.533333-8.533333 21.333333 0 29.866667l136.533333 136.533333c8.533333 8.533333 21.333333 8.533333 29.866667 0 8.533333-8.533333 8.533333-21.333333 0-29.866667L648.533333 488.533333zM512 0c-12.8 0-21.333333 8.533333-21.333333 21.333333l0 192c0 12.8 8.533333 21.333333 21.333333 21.333333s21.333333-8.533333 21.333333-21.333333l0-192C533.333333 8.533333 524.8 0 512 0zM512 533.333333c-12.8 0-21.333333 8.533333-21.333333 21.333333L490.666667 746.666667c0 12.8 8.533333 21.333333 21.333333 21.333333s21.333333-8.533333 21.333333-21.333333l0-192C533.333333 541.866667 524.8 533.333333 512 533.333333zM270.933333 113.066667c-8.533333-8.533333-21.333333-8.533333-29.866667 0s-8.533333 21.333333 0 29.866667l136.533333 136.533333c8.533333 8.533333 21.333333 8.533333 29.866667 0 8.533333-8.533333 8.533333-21.333333 0-29.866667L270.933333 113.066667zM375.466667 488.533333l-136.533333 136.533333c-8.533333 8.533333-8.533333 21.333333 0 29.866667s21.333333 8.533333 29.866667 0l136.533333-136.533333c8.533333-8.533333 8.533333-21.333333 0-29.866667C398.933333 482.133333 384 482.133333 375.466667 488.533333zM362.666667 384c0-12.8-8.533333-21.333333-21.333333-21.333333L149.333333 362.666667c-12.8 0-21.333333 8.533333-21.333333 21.333333 0 12.8 8.533333 21.333333 21.333333 21.333333l192 0C354.133333 405.333333 362.666667 396.8 362.666667 384zM648.533333 279.466667l136.533333-136.533333c8.533333-8.533333 8.533333-21.333333 0-29.866667-8.533333-8.533333-21.333333-8.533333-29.866667 0l-136.533333 136.533333c-8.533333 8.533333-8.533333 21.333333 0 29.866667C625.066667 285.866667 640 285.866667 648.533333 279.466667z"  horiz-adv-x="1024" />

    
    <glyph glyph-name="delete" unicode="&#58954;" d="M341.333305 426.62395399a42.66666299 42.66666299 0 1 0 85.333326 0v-255.91464599a42.66666299 42.66666299 0 1 0-85.333326 0v255.91464599zM0 644.26660199C0 670.190867 21.034665 691.199932 47.001596 691.199932h929.996723A47.001596 47.001596 0 0 0 1023.999915 644.26660199c0-25.924265-21.034665-46.933329-47.001596-46.93332898H47.001596A47.001596 47.001596 0 0 0 0 644.26660199z m597.33328399-217.642648a42.66666299 42.66666299 0 1 0 85.33332602 0v-255.91464599a42.66666299 42.66666299 0 1 0-85.333326 0v255.91464599zM682.66660999 691.199932V793.548723A17.066665 17.066665 0 0 1 665.625545 810.666588H358.37436997A17.07519899 17.07519899 0 0 1 341.333305 793.548723V691.199932H255.99997899V827.80151998A68.181328 68.181328 0 0 0 324.25810599 895.999915H699.733275C737.450605 895.999915 767.999936 865.4505840100001 767.999936 827.80151998V691.199932H682.66660999z m-511.98289098-819.199932a68.266661 68.266661 0 0 0-68.26666102 68.241061V597.3332730100001h85.33332601v-622.88208203A17.066665 17.066665 0 0 1 204.76585002-42.66667399000005h614.46821498a17.04959899 17.04959899 0 0 1 17.01546499 17.11786497V597.3332730100001h85.33332702v-657.09221201c0-37.69172999-30.626131-68.241061-68.26666101-68.241061H170.68371901z"  horiz-adv-x="1024" />

    
    <glyph glyph-name="cancel-circle" unicode="&#59017;" d="M512 869.42637922c-268.09329012 0-485.42637922-217.33176479-485.42637922-485.42637922 0-268.09329012 217.33308911-485.42637922 485.42637922-485.42637922s485.42637922 217.33308911 485.42637922 485.42637922c-0.00132432 268.09329012-217.33308911 485.42637922-485.42637922 485.42637922zM738.51199849 157.48270298c-7.04215357-7.04877642-16.28332375-10.57382743-25.51786981-10.57382744s-18.47571753 3.52505102-25.51787109 10.57382744L511.99735008 332.96558471000003 339.767955 160.74016257000005c-7.04215357-7.04877642-16.28332375-10.57382743-25.5178711-10.57382743-9.23454734 0-18.47571753 3.52505102-25.5178698 10.57382743-14.09755414 14.09092998-14.09755414 36.9434853 0 51.03573961l172.22939637 172.22674774-170.60000376 170.60265239c-14.09755414 14.09092998-14.09755414 36.9434853 0 51.0357409 14.08430714 14.09755414 36.95143376 14.09755414 51.0357396 0L511.99735008 435.0357409l170.06482223 170.06217101c14.08430714 14.09755414 36.95143376 14.09755414 51.0357396 0 14.09755414-14.09092998 14.09755414-36.9434853 0-51.0357396L563.03309097 384.00132432l175.47890752-175.48288046c14.09887845-14.09092998 14.09887845-36.9434853 0-51.03574088z"  horiz-adv-x="1024" />

    
    <glyph glyph-name="arrow-up" unicode="&#59133;" d="M520.17 547.341l387.577-387.578c11.2-11.2 29.486-11.234 40.743 0.023 11.234 11.235 11.268 29.5 0.024 40.743L540.805 608.24c-11.199 11.198-29.485 11.233-40.743-0.024a28.973 28.973 0 0 1-3.154-3.734l-420.7-392.31c-11.63-10.844-12.233-29.098-1.398-40.718 10.857-11.643 29.134-12.247 40.717-1.446L520.17 547.341z"  horiz-adv-x="1024" />

    
    <glyph glyph-name="export" unicode="&#59165;" d="M901.329638 1.8786770000000388c0-71.68-58.134173-129.773858-129.862551-129.773858H252.428094c-71.51874 0-129.862551 58.303496-129.862551 129.773858V421.097827c0 71.470362 58.343811 129.773858 129.862551 129.773858h84.064756a25.696756 25.696756 0 0 0 25.720945-25.704819 25.696756 25.696756 0 0 0-25.720945-25.704819H252.428094c-43.290205 0-78.630299-35.315906-78.630299-78.573858v-419.428787c0-43.257953 35.340094-78.573858 78.630299-78.573859H771.467087c43.290205 0 78.630299 35.315906 78.630299 78.573859V420.686614c0 43.257953-35.340094 78.573858-78.630299 78.573858H687.402331a25.696756 25.696756 0 0 0-25.720945 25.704819 25.696756 25.696756 0 0 0 25.720945 25.704819H771.467087c71.51874 0 129.862551-58.303496 129.862551-129.773858v-419.009512zM318.512378 677.509039c-10.038425 10.030362-10.038425 26.124094 0.419276 35.944819L494.382362 888.791685c9.61915 9.611087 26.559496 9.611087 36.178646 0l175.450709-175.337827a25.462929 25.462929 0 0 0 0-36.154456 25.479055 25.479055 0 0 0-18.190111-7.522772 25.479055 25.479055 0 0 0-18.198173 7.522772L537.882205 808.96v-480.022173a25.696756 25.696756 0 0 0-25.720945-25.704819 25.696756 25.696756 0 0 0-25.720945 25.704819V809.161575L354.691024 677.509039a25.511307 25.511307 0 0 0-36.170583 0z"  horiz-adv-x="1024" />

    
    <glyph glyph-name="arrow-left" unicode="&#58893;" d="M297.813333 404.352l1.365334 1.749333 379.093333 376.149334a38.784 38.784 0 0 0 5.077333 4.096 34.346667 34.346667 0 0 0 14.293334 4.992c2.218667 0.170667 2.176 0.170667 4.394666 0.170666a33.493333 33.493333 0 0 0 14.549334-4.181333c12.330667-6.997333 18.688-21.76 15.274666-35.498667-1.237333-5.077333-7.04-13.44-7.04-13.44l-355.498666-352.853333 354.090666-354.389333s6.272-7.978667 7.893334-12.928a32.213333 32.213333 0 0 0-33.749334-41.557334c-6.656 0.682667-17.749333 7.68-17.749333 7.68l-379.221333 377.984-1.28 1.450667a30.378667 30.378667 0 0 0-7.893334 17.749333 31.018667 31.018667 0 0 0 3.712 18.602667 27.221333 27.221333 0 0 0 2.688 4.224z"  horiz-adv-x="1024" />

    
    <glyph glyph-name="cancel" unicode="&#58889;" d="M425.856 9.736533000000009a29.499733 29.499733 0 0 0-19.669333 7.466667L18.4832 361.86453300000005a29.636267 29.636267 0 0 0 0 44.305067L406.186667 750.813867a29.5936 29.5936 0 0 0 31.761066 4.855466 29.636267 29.636267 0 0 0 17.527467-27.016533v-215.415467a29.602133 29.602133 0 0 0-29.610667-29.6192 29.610667 29.610667 0 0 0-29.6192 29.6192V662.715733L82.7136 384.017067 396.245333 105.301333V254.76266699999996a29.610667 29.610667 0 0 0 29.6192 29.6192 29.602133 29.602133 0 0 0 29.610667-29.6192v-215.415467a29.6448 29.6448 0 0 0-29.6192-29.610667zM985.856 9.736533000000009a29.627733 29.627733 0 0 0-27.477333 18.628267c-0.759467 1.672533-88.507733 196.795733-532.522667 196.795733-16.366933 0-29.6192 13.252267-29.6192 29.6192s13.243733 29.6192 29.6192 29.6192c295.185067 0 446.788267-82.0224 521.361067-149.0176-68.317867 343.287467-501.461333 348.2112-521.4208 348.2624a29.6192 29.6192 0 0 0 0.059733 59.2384c5.896533 0 589.610667-5.7856 589.610667-503.509333a29.678933 29.678933 0 0 0-29.610667-29.636267z"  horiz-adv-x="1024" />

    
    <glyph glyph-name="send" unicode="&#58880;" d="M372.3776 418.7136H33.1264a31.4368 31.4368 0 0 1-31.6416-31.5904c0-17.664 14.6944-31.5904 31.6416-31.5904h339.2512a31.3856 31.3856 0 0 1 31.6416 31.5904c0.768 16.896-13.9776 31.5904-31.6416 31.5904z m-147.2-136.704H33.1776a31.3856 31.3856 0 0 1-31.6928-31.5904c0-17.664 14.7456-31.5904 31.6928-31.5904h192.0512a31.3856 31.3856 0 0 1 31.6416 31.5904c0.7168 17.664-13.9776 31.5904-31.6416 31.5904h-0.0512z m585.8304-31.5904c0 2.2016 0 4.4032-0.768 6.656 0 0.7168-0.7168 2.1504-0.7168 2.9184 0 0.7168-0.768 2.2016-0.768 2.9184-0.7168 1.4848-1.4336 2.2016-1.4336 3.6864-0.7168 0.7168-0.7168 1.4848-0.7168 2.2016-1.536 1.4848-2.2528 3.6864-4.4544 5.12l-110.3872 108.8a31.5392 31.5392 0 0 1-44.8512 0 31.3856 31.3856 0 0 1 0-44.8512l55.1936-55.0912h-188.416a31.3856 31.3856 0 0 1-31.6416-31.5904c0-17.664 14.6944-31.6416 31.6416-31.6416h188.416l-55.1936-55.0912a31.488 31.488 0 0 1 0-44.8 31.4368 31.4368 0 0 1 44.8512 0l109.6704 109.4656a32.8192 32.8192 0 0 1 4.4032 5.12c0.768 0.768 0.768 1.536 1.4848 2.2016 0.768 1.536 1.4848 2.2016 1.4848 3.6864 0.7168 0.768 0.7168 2.2016 0.7168 2.9696 0 0.7168 0.7168 2.2016 0.7168 2.9184 0.768 0 0.768 2.2016 0.768 4.4032zM128 146.07360000000006H32.4096a31.8464 31.8464 0 0 1-31.6416-31.5904c0-17.664 13.9776-31.5904 31.6416-31.5904H128a31.3856 31.3856 0 0 1 31.6416 31.5904c0.768 16.896-13.9776 31.5904-31.6416 31.5904zM990.5664 653.1584l-87.552 168.2944C881.6128 862.5664 827.904 895.6928 780.8 895.6928H243.6096c-46.336 0-100.096-32.3584-122.1632-73.5232L33.8944 657.5616C14.6944 622.2848 0 562.7392 0 522.3424V496.64c0-17.664 13.9776-31.5904 31.6416-31.5904a31.3856 31.3856 0 0 1 31.6416 31.5904v25.7024c0 2.2016 0.768 5.888 0.768 8.8576h894.1056c0.768-4.4544 0.768-8.8576 0.768-12.4928v-548.9664a31.3856 31.3856 0 0 0-31.6416-31.5904H95.6928a31.8464 31.8464 0 0 0-31.6416 31.5904v38.912a31.3856 31.3856 0 0 1-31.6416 31.6416 31.3856 31.3856 0 0 1-31.6416-31.6416v-39.68a95.4368 95.4368 0 0 1 95.6416-95.5392h831.5904a95.8976 95.8976 0 0 1 95.6928 95.5392V517.9392c0 40.448-13.9776 99.9424-33.1264 135.2192zM77.9776 595.0976c3.6864 12.4928 8.0896 24.2176 12.544 32.3072l87.552 164.608c11.0592 20.5824 41.984 39.68 65.536 39.68h537.9584c23.552 0 54.4256-19.0976 65.4848-39.68l87.552-168.2944c4.4544-8.0384 8.1408-18.3296 11.776-29.3888H78.0288v0.768z"  horiz-adv-x="1024" />

    
    <glyph glyph-name="store" unicode="&#58881;" d="M220.066909 746.682182c-16.011636 0-28.997818-16.384-28.997818-36.584727 0-20.200727 13.032727-36.584727 28.997818-36.584728h581.166546c16.058182 0 28.997818 16.384 28.997818 36.584728 0 20.200727-12.939636 36.584727-28.997818 36.584727H220.066909zM1024 501.853091c0 8.005818 0 10.193455-113.803636 318.138182-10.845091 29.463273-42.356364 51.665455-73.355637 51.665454H187.112727c-30.906182 0-62.510545-22.202182-73.216-51.618909C0 512.046545 0 509.858909 0 501.853091c0-58.647273 26.018909-110.778182 66.373818-146.804364-0.093091-1.070545-0.605091-2.094545-0.605091-3.258182v-357.934545c0-53.76 42.821818-97.466182 95.557818-97.466182h701.34691c52.782545 0 95.604364 43.752727 95.604363 97.512727v357.934546c0 1.117091-0.558545 2.141091-0.651636 3.258182A195.956364 195.956364 0 0 1 1024 501.806545z m-129.396364-507.950546a32.302545 32.302545 0 0 0-31.930181-32.535272H161.326545a32.302545 32.302545 0 0 0-31.930181 32.535272V317.44a189.44 189.44 0 0 1 64.605091-12.008727c97.885091 0 160.209455 68.933818 158.394181 71.819636 2.56-2.885818 63.301818-69.678545 160.395637-71.586909 95.557818 1.908364 156.299636 68.701091 154.437818 71.68 2.606545-2.978909 64.977455-71.912727 162.862545-71.912727 22.714182 0 44.218182 4.701091 64.512 12.008727v-323.537455z m-64.512 376.785455c-68.887273 0-115.2 50.082909-115.572363 50.548364a60.509091 60.509091 0 0 1-45.056 20.619636 60.509091 60.509091 0 0 1-44.962909-20.48c-0.465455-0.465455-45.568-49.105455-111.988364-50.455273-67.490909 1.396364-112.500364 49.989818-112.826182 50.269091-23.412364 26.298182-66.885818 26.205091-90.158545 0.093091-0.465455-0.465455-46.685091-50.594909-115.525818-50.594909-70.144 0-127.488 56.273455-130.001455 126.370909 10.007273 29.277091 69.771636 191.767273 109.707636 299.985455 1.489455 4.096 9.122909 9.309091 13.498182 9.309091h649.634909c4.421818 0 11.962182-5.213091 13.498182-9.355637 39.936-108.171636 99.746909-270.661818 109.661091-299.938909-2.513455-70.097455-59.810909-126.370909-129.908364-126.370909z"  horiz-adv-x="1024" />

    
    <glyph glyph-name="search" unicode="&#58883;" d="M953.716364-119.714909l-240.919273 256.791273c-72.238545-55.854545-185.716364-110.778182-283.554909-110.778182C192.186182 26.298182 0 220.997818 0 461.172364S192.186182 896 429.242182 896s429.242182-194.699636 429.242182-434.827636a435.991273 435.991273 0 0 0-80.989091-253.486546L1024-41.239273l-70.283636-78.475636zM429.242182 805.096727c-187.531636 0-339.549091-153.972364-339.549091-343.970909 0-189.905455 152.017455-343.924364 339.549091-343.924363 187.485091 0 339.502545 154.018909 339.502545 343.970909 0 189.905455-152.017455 343.924364-339.502545 343.924363z"  horiz-adv-x="1024" />

    
    <glyph glyph-name="delivery" unicode="&#58882;" d="M1118.72 450.56v0.1536l1.024 1.6896-8.4992 5.7344L880.128 593.408V772.608c0 67.4304-54.1184 122.3168-120.6784 122.3168H120.7296C54.1696 894.8736 0.0512 839.9872 0.0512 772.5568v-705.4336c0-22.016 17.6128-39.936 39.3216-39.936a39.5776 39.5776 0 0 1 39.2704 39.8848V766.6688c0 26.7264 21.504 48.4864 47.9232 48.4864H753.664c26.4192 0 47.9232-21.76 47.9232-48.4864v-189.44c0-16.7424 10.5472-31.744 26.2656-37.376l226.7136-133.0688v-354.6112c0-22.016 16.1792-39.936 36.1472-39.936 19.968 0 36.1472 17.92 36.1472 39.8336v375.808a35.6864 35.6864 0 0 1-8.192 22.6816zM832.512 186.31679999999994c-74.5984 0-138.1376-53.9136-151.7568-128.4608l-274.432-0.1536C392.704 132.35199999999998 329.216 186.36800000000005 254.464 186.36800000000005c-85.504 0-155.0336-70.4512-155.0336-157.0816 0-86.5792 69.5296-157.0304 155.0336-157.0304 69.376 0 130.5088 47.2064 149.1968 114.944l279.552 0.1024c18.688-67.84 79.872-115.0464 149.248-115.0464 85.504 0 155.136 70.4512 155.136 157.0304 0 86.6304-69.632 157.0816-155.136 157.0816zM254.5152-44.85119999999995c-40.3968 0-73.216 33.28-73.216 74.0864a73.728 73.728 0 0 0 73.216 74.1376c40.448 0 73.216-33.28 73.216-74.1376a73.728 73.728 0 0 0-73.216-74.0864z m578.048 0a73.728 73.728 0 0 0-73.216 74.0864 73.728 73.728 0 0 0 73.216 74.1376c40.3456 0 73.216-33.28 73.216-74.1376a73.728 73.728 0 0 0-73.216-74.0864z m-95.9488 528.896a38.3488 38.3488 0 0 1-38.0416-38.5536v-117.248c-0.0512-0.1536-1.536-28.2112 16.7936-47.9744 11.52-12.4928 27.8528-18.7904 48.5888-18.7904h147.1488c20.992 0 38.0416 17.2544 38.0416 38.5024a38.5024 38.5024 0 0 1-37.9904 38.656H774.656V445.44a38.3488 38.3488 0 0 1-37.9904 38.5024z"  horiz-adv-x="1177" />

    
    <glyph glyph-name="add" unicode="&#58884;" d="M0 430.545455m34.909091 0l954.181818 0q34.909091 0 34.909091-34.909091l0 0q0-34.909091-34.909091-34.909091l-954.181818 0q-34.909091 0-34.909091 34.909091l0 0q0 34.909091 34.909091 34.909091ZM546.909091 896m0-34.909091l0-954.181818q0-34.909091-34.909091-34.909091l0 0q-34.909091 0-34.909091 34.909091l0 954.181818q0 34.909091 34.909091 34.909091l0 0q34.909091 0 34.909091-34.909091Z"  horiz-adv-x="1024" />

    
    <glyph glyph-name="check-o" unicode="&#58890;" d="M512-96C246.896-96 32 118.89599999999996 32 384S246.896 864 512 864s480-214.896 480-480-214.896-480-480-480z m206.40000001 610.272L457.904 259.20000000000005 305.59999999 408.336a48 48 0 0 1-67.19999998-68.64l185.90399999-181.968a48 48 0 0 1 67.2 0l294.09600001 288a48 48 0 0 1-67.2 68.544z"  horiz-adv-x="1024" />

    
    <glyph glyph-name="add-o" unicode="&#59166;" d="M168.75171549 727.24828451c-189.57058343-189.57058343-189.57151986-496.92504916 0-686.49656902 189.57058343-189.57058343 496.9259856-189.57058343 686.49656902 0s189.57058343 496.9259856 0 686.49656902c-189.57151987 189.569647-496.9259856 189.57058343-686.49656902 0zM832.34008693 383.99625337c0.00468306-9.96379215-4.03722357-18.99087372-10.5670337-25.52068387s-15.55689263-10.57171767-25.52068477-10.5670346L548.08490735 347.91134509999995 548.08209806 104.34500803000003c0.00468306-9.96379215-4.03722357-18.99087372-10.56703462-25.52068478-6.52981105-6.52981105-15.55689263-10.57171767-25.52068386-10.56703369-19.93226827-0.00468399-36.09146511 16.15451285-36.08771756 36.08771756l0.00187287 243.56727532-241.26671193 0.00187286c-19.93226827-0.00468399-36.09146511 16.15451285-36.08771847 36.08771848-0.00936704 19.92758522 16.16013326 36.09708552 36.08771755 36.08771755L475.91040775 420.0858447l0.0018747 240.50610338c-0.00936704 19.92758522 16.16013326 36.09708552 36.08771755 36.08771756 19.93226827 0.00468399 36.09146511-16.15451285 36.08771755-36.08771756L548.08490825 420.08678113l248.16746022-0.0028093c19.9332047 0.00562042 36.09240154-16.15357642 36.08771846-36.08771846z"  horiz-adv-x="1024" />

    
    <glyph glyph-name="question" unicode="&#58894;" d="M512-96A480 480 0 1 0 512 864a480 480 0 0 0 0-960z m8.57142844 754.28571469c-60.48 0-107.86285688-15.77142844-142.21714313-48.20571469-34.28571469-31.68-51.49714313-74.60571469-51.49714218-129.6h85.85142843c0 33.12 7.33714312 58.76571469 22.08 76.8 16.32 21.94285688 43.26857156 32.43428531 80.09142844 32.43428531 29.41714312 0 53.14285687-7.54285688 69.46285687-22.62857062 15.49714313-15.08571469 23.72571469-35.38285688 23.72571469-61.71428625 0-19.61142844-8.22857156-37.71428531-22.90285687-55.06285688l-13.92-14.33142844c-50.67428531-41.41714313-81.73714312-72.34285687-92.36571469-93.39428625-11.45142844-19.61142844-16.32-43.74857156-16.32-71.58857156v-12.82285687h87.42857156v12.82285687c0 18.03428531 4.11428531 34.62857156 13.09714313 49.71428625a127.54285687 127.54285687 0 0 0 34.28571375 39.15428531c38.46857156 30.85714312 61.37142844 50.53714313 68.70857156 58.76571469 20.43428531 24.13714313 31.06285687 55.06285688 31.06285688 91.95428531 0 45.25714312-16.32 81.39428531-49.02857157 107.79428625C615.40571469 645.46285687 572.89142844 658.28571469 520.57142844 658.28571469z m-14.67428532-440.84571469a60.68571469 60.68571469 0 0 1-42.51428625-15.08571469 48.13714313 48.13714313 0 0 1-17.14285687-38.4c0-15.08571469 5.69142844-27.84 17.14285687-38.4 11.45142844-10.56 26.12571469-15.84 42.51428625-15.84a64.38857156 64.38857156 0 0 1 42.51428532 15.08571469 51.56571469 51.56571469 0 0 1 17.96571468 39.15428531 48.13714313 48.13714313 0 0 1-17.14285781 38.4c-11.52 10.56-26.19428531 15.08571469-43.33714219 15.08571469z"  horiz-adv-x="1024" />

    
    <glyph glyph-name="calendar" unicode="&#58895;" d="M111.99999969 703.99999969v-679.99999969h800.00000062V703.99999969H111.99999969zM72.00000031 784.00000031h879.99999938a40.00000031 40.00000031 0 0 0 40.00000031-40.00000031V-16.00000031000002a40.00000031 40.00000031 0 0 0-40.00000031-39.99999938H72.00000031A40.00000031 40.00000031 0 0 0 32-16.00000031000002V744A40.00000031 40.00000031 0 0 0 72.00000031 784.00000031zM192.00000031 864h79.99999969v-160.00000031H192.00000031zM752 864h79.99999969v-160.00000031H752zM111.99999969 544.00000031h880.00000031v-80.00000062H111.99999969zM272 304.00000031m40.00000031 0l159.99999938 0q40.00000031 0 40.00000031-40.00000031l0 0q0-40.00000031-40.00000031-40.00000031l-159.99999938 0q-40.00000031 0-40.00000031 40.00000031l0 0q0 40.00000031 40.00000031 40.00000031ZM632 304.00000031m40.00000031 0l39.99999938 0q40.00000031 0 40.00000031-40.00000031l0 0q0-40.00000031-40.00000031-40.00000031l-39.99999938 0q-40.00000031 0-40.00000031 40.00000031l0 0q0 40.00000031 40.00000031 40.00000031Z"  horiz-adv-x="1024" />

    
    <glyph glyph-name="push" unicode="&#58896;" d="M841.045333 370.773333H654.762667v-425.984a42.666667 42.666667 0 0 0-42.666667-42.666666H403.370667a42.666667 42.666667 0 0 0-42.666667 42.666666V370.773333H174.421333a42.666667 42.666667 0 0 0-33.28 69.376L474.453333 854.613333a42.666667 42.666667 0 0 0 66.56 0l333.312-414.464a42.666667 42.666667 0 0 0-33.28-69.376z"  horiz-adv-x="1024" />

    
    <glyph glyph-name="pull" unicode="&#59167;" d="M182.954667 397.226667L369.237333 397.226667l0 425.984a42.666667 42.666667 0 0 0 42.666667 42.66666599L620.629333 865.87733299a42.666667 42.666667 0 0 0 42.666667-42.66666599L663.296 397.226667 849.578667 397.226667a42.666667 42.666667 0 0 0 33.28-69.376L549.546667-86.61333300000001a42.666667 42.666667 0 0 0-66.56 0l-333.312 414.464a42.666667 42.666667 0 0 0 33.28 69.376z"  horiz-adv-x="1024" />

    
    <glyph glyph-name="nav" unicode="&#58885;" d="M1021.586286 896L2.413714 472.356571l421.595429-175.981714 167.789714-421.595428z"  horiz-adv-x="1024" />

    
    <glyph glyph-name="early" unicode="&#58887;" d="M366.165333 73.38666699999999L304.981333 471.04C210.773333 531.797333 119.552 634.325333 30.208 776.661333a64 64 0 1 0 108.373333 68.010667C271.018667 633.856 396.928 533.333333 512 533.333333c115.2 0 241.92 100.650667 375.637333 311.594667a64 64 0 0 0 108.117334-68.522667c-90.24-142.378667-182.186667-244.906667-276.778667-305.621333l-61.44-399.701333 250.752 54.954666a85.333333 85.333333 0 1 0 36.565333-166.741333l-320.426666-70.186667a512 512 0 0 0-225.664 1.450667l-296.405334 68.992a85.333333 85.333333 0 0 0 38.698667 166.229333l225.109333-52.394666zM512 597.333333a128 128 0 1 0 0 256 128 128 0 0 0 0-256z"  horiz-adv-x="1024" />

    
    <glyph glyph-name="sport" unicode="&#58888;" d="M617.982013 513.96983l-92.115606-60.670863 54.014987-139.730713c20.479616-50.047062 32.255395-92.158272-15.658373-112.083232L268.29257 90.89509599999997c-35.242006-14.634392-76.329235 0.597322-91.731614 34.047361-15.445044 33.407374 0.597322 72.36131 35.839328 87.038368l190.545761 66.814748-87.763688 123.005693a63.913468 63.913468 0 0 0-2.346623 101.16077l148.477216 159.997-73.342624 45.951139-205.052156-95.016885a68.862709 68.862709 0 0 0-91.048959 32.383392 67.113408 67.113408 0 0 0 32.852717 89.81165L363.778779 846.934253a69.289367 69.289367 0 0 0 65.833432-4.138589l214.481312-134.39748c8.106515-5.119904 14.975719-11.733113 20.266287-19.626298l102.483412-151.677157 159.869002 72.958632a68.862709 68.862709 0 0 0 90.878296-32.895383 67.113408 67.113408 0 0 0-33.364708-89.59832l-213.116004-97.278176c-30.634092-13.994404-67.028077-3.839928-85.758392 23.807554l-67.412069 99.880794zM810.661067 640.0047999999999a127.9976 127.9976 0 1 0 0 255.9952 127.9976 127.9976 0 0 0 0-255.9952z m-367.779771-521.206227l158.674358 63.700138-94.974219-266.533669c-12.586431-35.370003-49.279076-52.991006-81.96113-39.337929-32.682054 13.653077-48.937749 53.374999-36.351318 88.745003l54.612309 153.426457zM25.779783 507.697947C11.529384 507.740613 0.0096 521.649686 0.0096 538.886696c0 17.151678 11.519784 31.103417 25.727517 31.103417h196.006992c14.165068 0 25.684852-13.951738 25.684852-31.146083 0-17.151678-11.519784-31.103417-25.684852-31.103417H25.737117z m0-96.851517c-14.207734 0-25.727518 13.909073-25.727517 31.103417 0 17.151678 11.519784 31.103417 25.727517 31.103417h158.546361c14.207734 0 25.684852-13.951738 25.684852-31.146083 0-17.151678-11.519784-31.103417-25.684852-31.103417H25.737117z m0-96.894183c-14.207734 0-25.727518 13.909073-25.727517 31.103417 0 17.194344 11.519784 31.146083 25.727517 31.146082h191.399078c14.207734 0 25.684852-13.951738 25.684852-31.146082 0-17.194344-11.519784-31.146083-25.684852-31.146083H25.737117z"  horiz-adv-x="1024" />

    
    <glyph glyph-name="heart" unicode="&#58891;" d="M1045.574156 799.814492A337.772749 337.772749 0 0 1 808.079977 895.997074 342.673307 342.673307 0 0 1 580.0212 809.688749l-7.899406-6.875408-7.679978 7.021694A342.746449 342.746449 0 0 1 336.456182 895.997074a337.772749 337.772749 0 0 1-237.494179-96.182582A324.460787 324.460787 0 0 1 0 566.2700159999999C0 478.059983 35.108471 395.189362 98.962003 332.798683l403.454847-394.312016c18.651375-18.212519 43.446733-28.233062 69.851229-28.233062s51.199854 10.020543 69.924372 28.306205L1045.647298 332.798683a324.460787 324.460787 0 0 1 98.88886 233.398191c0 88.210034-35.108471 171.153797-98.962002 233.544475z m-35.62047-432.565621l-403.454847-394.238874a48.566718 48.566718 0 0 0-34.23076-13.897103 48.420433 48.420433 0 0 0-34.230759 13.897103L134.582473 367.17572800000005a276.332925 276.332925 0 0 0-84.187188 198.948003 276.47921 276.47921 0 0 0 84.114045 199.021146A287.304322 287.304322 0 0 0 336.821895 847.137785c71.679795 0 140.433884-26.111925 193.828017-73.435218l41.69131-37.083323 41.691309 37.083323a291.546596 291.546596 0 0 0 193.828018 73.435218 287.450607 287.450607 0 0 0 202.166279-81.846623 276.259782 276.259782 0 0 0 84.260331-198.948003 276.332925 276.332925 0 0 0-84.260331-199.094288z"  horiz-adv-x="1170" />

    
    <glyph glyph-name="heart-o" unicode="&#58892;" d="M1045.574156 799.814492A337.772749 337.772749 0 0 1 808.079977 895.997074 342.673307 342.673307 0 0 1 580.0212 809.688749l-7.899406-6.875408-7.679978 7.021694A342.746449 342.746449 0 0 1 336.456182 895.997074a337.772749 337.772749 0 0 1-237.494179-96.182582A324.460787 324.460787 0 0 1 0 566.2700159999999C0 478.059983 35.108471 395.189362 98.962003 332.798683l403.454847-394.312016c18.651375-18.212519 43.446733-28.233062 69.851229-28.233062s51.199854 10.020543 69.924372 28.306205L1045.647298 332.798683a324.460787 324.460787 0 0 1 98.88886 233.398191c0 88.210034-35.108471 171.153797-98.962002 233.544475z"  horiz-adv-x="1170" />

    
    <glyph glyph-name="checked-r" unicode="&#58886;" d="M93.090909 896h837.818182a93.090909 93.090909 0 0 0 93.090909-93.090909v-837.818182a93.090909 93.090909 0 0 0-93.090909-93.090909H93.090909a93.090909 93.090909 0 0 0-93.090909 93.090909V802.909091a93.090909 93.090909 0 0 0 93.090909 93.090909z m741.050182-301.149091l-363.194182-363.194182-231.982545 232.029091a34.909091 34.909091 0 0 1-49.338182-49.384727l256.651636-256.698182a34.909091 34.909091 0 0 1 49.338182 0l387.909818 387.909818a34.909091 34.909091 0 1 1-49.338182 49.338182z"  horiz-adv-x="1024" />

    
    <glyph glyph-name="add-r" unicode="&#58897;" d="M93.090909 896h837.818182a93.090909 93.090909 0 0 0 93.090909-93.090909v-837.818182a93.090909 93.090909 0 0 0-93.090909-93.090909H93.090909a93.090909 93.090909 0 0 0-93.090909 93.090909V802.909091a93.090909 93.090909 0 0 0 93.090909 93.090909z m384-477.090909h-209.454545a34.909091 34.909091 0 1 1 0-69.818182h209.454545v-209.454545a34.909091 34.909091 0 1 1 69.818182 0v209.454545h209.454545a34.909091 34.909091 0 1 1 0 69.818182h-209.454545v209.454545a34.909091 34.909091 0 1 1-69.818182 0v-209.454545z"  horiz-adv-x="1024" />

    
    <glyph glyph-name="arrow-right-fill-o" unicode="&#58898;" d="M0 384c0-282.441143 229.010286-512 512-512s512 229.010286 512 512S794.989714 896 512 896 0 666.441143 0 384z m601.453714 0l-181.174857 181.174857a33.974857 33.974857 0 0 0 0 48.384 33.974857 33.974857 0 0 0 48.384 0l205.385143-205.897143c13.494857-13.531429 13.494857-34.925714 0-48.420571l-204.251429-204.251429a33.645714 33.645714 0 0 0-24.173714-10.093714 34.596571 34.596571 0 0 0-24.210286 10.093714 33.974857 33.974857 0 0 0 0 48.420572L601.453714 384z"  horiz-adv-x="1024" />

    
    <glyph glyph-name="phone" unicode="&#58899;" d="M396.34959 590.419794L287.568885 479.665246c56.583512-125.594927 176.622435-265.518494 315.81495-312.598315l93.940326 93.574799s222.678781-38.892026 272.682815-63.089884c43.497661-20.981225 57.753197-67.622414 51.027508-125.2294-7.164321-61.847094-88.311217-198.188502-234.302526-199.650608-145.991309-1.462106-360.994032 108.561389-514.95382 270.708971C117.81835 305.82081300000004-19.473426 511.466057 2.604378 686.187754 24.535972 860.90945 176.595021 892.198524 214.609784 895.049631c38.599605 2.851107 69.08452-8.407111 92.332009-37.210604 29.826967-37.137499 89.407797-267.492338 89.407797-267.492338"  horiz-adv-x="1024" />

    
    <glyph glyph-name="xiangji1" unicode="&#58903;" d="M102.4 563.2a51.2 51.2 0 0 1-51.2-51.2V128a51.2 51.2 0 0 1 51.2-51.2h819.2a51.2 51.2 0 0 1 51.2 51.2V640a51.2 51.2 0 0 1-51.2 51.2h-383.5392a51.2 51.2 0 0 1-39.2192-18.2784l-46.08-54.8864A153.6 153.6 0 0 0 335.1552 563.2H102.4z m0 51.2h232.7552a102.4 102.4 0 0 1 78.3872 36.5568l46.08 54.8864A102.4 102.4 0 0 0 538.112 742.4H921.6a102.4 102.4 0 0 0 102.4-102.4v-512a102.4 102.4 0 0 0-102.4-102.4H102.4a102.4 102.4 0 0 0-102.4 102.4V512a102.4 102.4 0 0 0 102.4 102.4zM128 742.4m25.6 0l153.6 0q25.6 0 25.6-25.6l0 0q0-25.6-25.6-25.6l-153.6 0q-25.6 0-25.6 25.6l0 0q0 25.6 25.6 25.6ZM665.6 153.6a230.4 230.4 0 1 0 0 460.8 230.4 230.4 0 0 0 0-460.8z m0 51.2a179.2 179.2 0 1 1 0 358.4 179.2 179.2 0 0 1 0-358.4z"  horiz-adv-x="1024" />

    
    <glyph glyph-name="share" unicode="&#58900;" d="M1077.12 431.872L656 852.992a32 32 0 0 1-54.656-22.592v-221.44c-153.6-37.76-283.52-109.952-389.696-216.704C105.408 285.504 52.352 124.864 52.352-89.728c73.984 130.88 158.528 214.08 253.696 249.536a777.088 777.088 0 0 0 295.296 49.024v-224.576a32 32 0 0 1 54.72-22.528l421.12 424.96a32 32 0 0 1-0.064 45.184z"  horiz-adv-x="1088" />

    
    <glyph glyph-name="tongzhi" unicode="&#58904;" d="M681.6 551.872l-2.88 50.176a131.2 131.2 0 0 0 5.696 0.192c77.952 0 141.12-91.776 141.12-204.864 0-113.152-63.168-204.864-141.184-204.864v50.304c42.944 0 90.88 63.488 90.88 154.56s-47.936 154.56-90.88 154.56h-2.816z m105.088 115.392l-2.944 50.24c3.008 0.128 5.952 0.32 8.96 0.32 122.112 0 221.12-144.64 221.12-323.072 0-178.432-99.008-323.072-221.12-323.072v50.368c92.608 0 170.88 124.864 170.88 272.64 0 147.84-78.272 272.768-170.88 272.768l-6.016-0.192zM519.808 25.6L519.296 766.272c-42.048-23.936-145.536-114.24-227.2-194.432l-14.72-14.4h-217.6v-326.656l217.28 0.064 12.8-11.008 229.952-194.304z m4.928-58.752c-2.752 0-9.6-1.408-26.048 11.136L251.392 180.48H42.496s-30.72 5.44-32.96 38.336V574.72s4.352 24.128 32.96 32.896h214.336s217.6 213.632 268.16 213.632h1.152s1.792 0.256 4.608 0.256c10.944 0 37.568-4.16 39.36-44.16v-772.096s0-33.28-43.968-38.4c0 0-0.384-0.128-1.408-0.128z"  horiz-adv-x="1024" />

    
    <glyph glyph-name="tips" unicode="&#58905;" d="M948.516571 613.229714a35.401143 35.401143 0 1 1-62.171428-33.865143l-0.146286-0.146285A421.595429 421.595429 0 1 0 89.380571 387.072 421.449143 421.449143 0 0 0 701.878857 762.88l0.219429 0.438857a35.401143 35.401143 0 0 1 31.451428 63.122286A492.544 492.544 0 0 1 18.285714 387.072a492.544 492.544 0 1 1 930.157715 226.230857zM796.525714 707.730286a35.401143 35.401143 0 0 1 70.948572 0 35.401143 35.401143 0 0 1-70.948572 0zM479.817143 177.664a35.401143 35.401143 0 1 1 70.802286 0.073143 35.401143 35.401143 0 0 1-70.729143-0.073143zM515.291429 283.355429c19.382857 0 35.108571 15.798857 35.108571 35.108571V599.698286a35.181714 35.181714 0 0 1-35.108571 35.108571 35.181714 35.181714 0 0 1-35.108572-35.108571v-281.234286c0-19.309714 15.725714-35.108571 35.108572-35.108571z"  horiz-adv-x="1024" />

    
    <glyph glyph-name="time" unicode="&#58921;" d="M0 9.244444V758.755556A137.472 137.472 0 0 0 137.244444 896h749.511112A137.472 137.472 0 0 0 1024 758.755556v-749.511112A137.472 137.472 0 0 0 886.755556-128H137.244444A137.472 137.472 0 0 0 0 9.244444z m995.555556 749.511112A108.942222 108.942222 0 0 1 886.755556 867.555556H137.244444A108.942222 108.942222 0 0 1 28.444444 758.755556v-749.511112A108.942222 108.942222 0 0 1 137.244444-99.555556h749.511112A108.942222 108.942222 0 0 1 995.555556 9.244444V758.755556z m-142.136889-373.646223a14.222222 14.222222 0 0 0 14.222222 14.222223h86.215111a14.222222 14.222222 0 1 0 0-28.444445h-86.272a14.222222 14.222222 0 0 0-14.165333 14.222222zM496.64 739.640889V825.856a14.222222 14.222222 0 1 0 28.444444 0v-86.272a14.222222 14.222222 0 1 0-28.444444 0v0.056889zM55.864889 382.862222a14.222222 14.222222 0 0 0 14.279111 14.222222h86.215111a14.222222 14.222222 0 1 0 0-28.444444H70.144a14.222222 14.222222 0 0 0-14.279111 14.222222z m443.022222-440.746666v86.215111a14.222222 14.222222 0 1 0 28.444445 0v-86.215111a14.222222 14.222222 0 1 0-28.444445 0zM885.020444 624.071111a24.888889 24.888889 0 1 1 0-49.777778 24.888889 24.888889 0 0 1 0 49.777778z m-157.582222 157.696a24.888889 24.888889 0 0 1 0-49.777778 24.888889 24.888889 0 0 1 0 49.777778z m-430.648889 0.113778a24.888889 24.888889 0 0 1 0-49.777778 24.888889 24.888889 0 0 1 0 49.777778zM139.093333 624.327111a24.888889 24.888889 0 1 1 0-49.777778 24.888889 24.888889 0 0 1 0 49.777778z m-0.113777-430.648889a24.888889 24.888889 0 1 1 0-49.777778 24.888889 24.888889 0 0 1 0 49.777778z m157.582222-157.696a24.888889 24.888889 0 1 1 0-49.777778 24.888889 24.888889 0 0 1 0 49.777778z m430.648889-0.113778a24.888889 24.888889 0 1 1 0-49.777777 24.888889 24.888889 0 0 1 0 49.777777z m157.696 157.582223a24.888889 24.888889 0 1 1 0-49.777778 24.888889 24.888889 0 0 1 0 49.777778zM481.137778 98.417778a44.885333 44.885333 0 0 0-37.034667 51.768889l39.082667 237.283555c0.312889 1.848889 0.739556 3.640889 1.28 5.404445l-284.444445 162.986666a14.222222 14.222222 0 1 0 14.136889 24.689778l286.663111-164.295111a45.027556 45.027556 0 0 0 71.253334-43.491556l-39.139556-237.283555a45.084444 45.084444 0 0 0-51.768889-37.063111z"  horiz-adv-x="1024" />

    
    <glyph glyph-name="shanchuxuanxiang" unicode="&#58906;" d="M512 384m-512 0a512 512 0 1 1 1024 0 512 512 0 1 1-1024 0ZM279.272727 430.545455h465.454546v-93.09091H279.272727z"  horiz-adv-x="1024" />

    
    <glyph glyph-name="Group" unicode="&#58907;" d="M220.672 725.333333L341.333333 845.994667 803.328 384 341.333333-77.994667 220.672 42.666667l341.333333 341.333333z"  horiz-adv-x="1024" />

    
    <glyph glyph-name="xuanzhong" unicode="&#58909;" d="M512 384m-512 0a512 512 0 1 1 1024 0 512 512 0 1 1-1024 0ZM775.424 596.48a32 32 0 0 0 49.152-40.96l-320.384-384a32 32 0 0 0-43.776-5.12L204.8 357.952a32 32 0 0 0 38.4 51.2l231.296-173.312 300.928 360.64z"  horiz-adv-x="1024" />

    
    <glyph glyph-name="fang-xuanzhong" unicode="&#58910;" d="M0 896m128 0l768 0q128 0 128-128l0-768q0-128-128-128l-768 0q-128 0-128 128l0 768q0 128 128 128ZM775.424 596.48a32 32 0 0 0 49.152-40.96l-320.384-384a32 32 0 0 0-43.776-5.12L204.8 357.952a32 32 0 0 0 38.4 51.2l231.296-173.312 300.928 360.64z"  horiz-adv-x="1024" />

    
    <glyph glyph-name="weixuanzhong" unicode="&#58911;" d="M512-64A448 448 0 1 1 512 832a448 448 0 0 1 0-896z m0-64A512 512 0 1 0 512 896a512 512 0 0 0 0-1024z"  horiz-adv-x="1024" />

    
    <glyph glyph-name="fang-weixuanzhong" unicode="&#58908;" d="M128 832a64 64 0 0 1-64-64v-768a64 64 0 0 1 64-64h768a64 64 0 0 1 64 64V768a64 64 0 0 1-64 64H128z m0 64h768a128 128 0 0 0 128-128v-768a128 128 0 0 0-128-128H128a128 128 0 0 0-128 128V768a128 128 0 0 0 128 128z"  horiz-adv-x="1024" />

    
    <glyph glyph-name="warn-fill-o" unicode="&#58922;" d="M511.464727 896C228.910545 896 0 666.996364 0 384.558545c0-282.461091 229.003636-511.557818 511.534545-511.557818 282.484364 0 511.557818 229.003636 511.557819 511.534546C1022.999273 666.996364 794.018909 896 511.464727 896z m-53.76-160.465455c14.452364 15.546182 33.605818 23.319273 57.134546 23.319273 28.625455 0 47.872-9.960727 57.460363-29.812363 9.774545-19.851636 14.452364-48.477091 14.452364-85.783273 0-22.039273-1.093818-44.381091-3.490909-67.025455l-21.434182-246.737454c-2.304-29.323636-7.284364-51.851636-14.964364-67.514182-7.586909-15.755636-20.247273-23.552-38.004363-23.552-17.943273 0-30.510545 7.586909-37.492364 22.737454-6.981818 15.173818-11.985455 38.306909-14.964363 69.422546l-15.965091 239.662545c-2.978909 46.778182-4.491636 80.290909-4.491637 100.654546 0 27.508364 7.284364 49.152 21.76 64.628363z m106.705455-714.426181a76.520727 76.520727 0 0 0-52.549818-19.944728c-20.247273 0-38.004364 6.469818-53.178182 19.735273-15.057455 13.172364-22.737455 31.627636-22.737455 55.365818 0 20.736 7.284364 38.190545 21.76 52.759273 14.452364 14.568727 32.209455 21.853091 53.154909 21.853091 20.945455 0 38.981818-7.284364 53.76-21.853091 14.754909-14.568727 22.225455-32.023273 22.225455-52.759273 0-23.435636-7.470545-41.797818-22.434909-55.156363z"  horiz-adv-x="1024" />

    
    <glyph glyph-name="edit-fill-o" unicode="&#58923;" d="M511.999716-127.999431C229.262095-127.999431 0 101.262664 0 384.000284S229.262095 896 511.999716 896s511.999716-229.262095 511.999715-511.999716c0-114.631047-37.717312-220.643433-101.404388-305.976718L1023.999431-127.999431l-246.840752 73.955514A509.837939 509.837939 0 0 0 511.999716-127.999431z m-242.830088 246.044308l116.451491 12.373326-108.885273 107.207052-19.000878-107.150163s-3.356443-7.566218-0.711111-10.581327c3.498665-3.896887 12.145771-1.848888 12.145771-1.848888z m41.244422 155.420358l110.079939-108.28794 284.501175 283.989175-109.084384 107.377719-285.468286-283.078954z m429.36865 210.460327l44.600864 44.487087a12.401771 12.401771 0 0 1 0 17.521768l-90.424838 90.424838a12.430215 12.430215 0 0 1-17.578657 0l-45.539531-45.169752 108.942162-107.263941z"  horiz-adv-x="1024" />

    
    <glyph glyph-name="question-fill-o" unicode="&#58924;" d="M512-128c97.080889 0 187.847111 27.079111 265.159111 73.955556L1024-128l-101.404444 206.023111C986.282667 163.356444 1024 269.368889 1024 384c0 282.737778-229.262222 512-512 512S0 666.737778 0 384s229.262222-512 512-512z m-188.216889 620.714667c1.109333 41.415111 6.058667 72.96 14.705778 94.606222 8.647111 21.617778 22.499556 40.931556 41.443555 57.884444a186.737778 186.737778 0 0 0 63.431112 37.575111 224.910222 224.910222 0 0 0 73.841777 12.117334c52.423111 0 95.971556-15.445333 130.844445-46.250667 34.872889-30.776889 52.309333-71.850667 52.309333-123.050667 0-22.983111-4.465778-43.889778-13.368889-62.577777-8.903111-18.659556-27.932444-42.040889-57.002666-69.973334-29.070222-27.960889-48.355556-47.758222-57.884445-59.619555a122.112 122.112 0 0 1-21.617778-42.296889c-4.977778-16.440889-7.082667-38.456889-6.456889-66.048h-76.060444c0 32.284444 2.588444 58.026667 7.793778 77.283555a154.737778 154.737778 0 0 0 23.381333 50.602667c10.382222 14.336 29.070222 35.612444 56.149333 63.431111 27.079111 27.960889 44.515556 48.241778 52.309334 60.871111 7.793778 12.600889 11.633778 31.516444 11.633778 56.490667 0 25.116444-8.903111 47.246222-26.737778 66.56-17.806222 19.285333-43.776 28.928-77.767111 28.928-76.572444 0-114.915556-45.511111-114.915556-136.419556h-76.032v-0.113777z m226.190222-425.813334H466.204444v88.064h83.740445v-88.064z"  horiz-adv-x="1024" />

    
    <glyph glyph-name="huaban" unicode="&#58912;" d="M512-87.04c260.1472 0 471.04 210.8928 471.04 471.04S772.1472 855.04 512 855.04 40.96 644.1472 40.96 384s210.8928-471.04 471.04-471.04z m0-40.96C229.23264-128 0 101.23264 0 384S229.23264 896 512 896s512-229.23264 512-512-229.23264-512-512-512zM426.0864 218.39872l323.45088 323.44064a20.48 20.48 0 0 0 28.95872-28.95872L426.09664 160.48128 249.72288 336.8448a20.48 20.48 0 1 0 28.96896 28.95872L426.0864 218.39872z"  horiz-adv-x="1024" />

    
    <glyph glyph-name="huaban1" unicode="&#58913;" d="M532.48 404.48h327.68a20.48 20.48 0 1 0 0-40.96H512a20.48 20.48 0 0 0-20.48 20.48V732.16a20.48 20.48 0 1 0 40.96 0v-327.68zM512-87.04c260.1472 0 471.04 210.8928 471.04 471.04S772.1472 855.04 512 855.04 40.96 644.1472 40.96 384s210.8928-471.04 471.04-471.04z m0-40.96C229.23264-128 0 101.23264 0 384S229.23264 896 512 896s512-229.23264 512-512-229.23264-512-512-512z"  horiz-adv-x="1024" />

    
    <glyph glyph-name="habit" unicode="&#58914;" d="M748.2368 739.328C425.8816 583.8848 55.808-52.8384 55.808-52.8384h212.1728v21.7088H100.5568s53.76 79.5648 101.376 126.6688c185.1392 10.8544 346.3168 32.4608 456.704 224.256 18.0224 43.4176-14.848 39.936-23.8592 39.936 86.528 43.3152 277.504 213.2992 247.808 296.5504-11.9808 14.336-20.992 7.168-20.992 7.168s143.36 112.2304 68.608 162.816C855.7568 876.7488 670.72 797.184 670.72 797.184S682.5984 833.536 643.8912 833.536C491.52 815.3088 375.296 684.9536 375.296 684.9536s0 43.4176-23.9616 25.3952C31.8464 471.6544 154.3168 196.608 154.3168 196.608s319.2832 484.7616 593.92 542.72zM51.2-21.4016m51.2 0l409.6 0q51.2 0 51.2-51.2l0 0q0-51.2-51.2-51.2l-409.6 0q-51.2 0-51.2 51.2l0 0q0 51.2 51.2 51.2ZM648.6016-21.4016m51.2 0l25.6 0q51.2 0 51.2-51.2l0 0q0-51.2-51.2-51.2l-25.6 0q-51.2 0-51.2 51.2l0 0q0 51.2 51.2 51.2Z"  horiz-adv-x="1024" />

    
    <glyph glyph-name="address" unicode="&#58915;" d="M1024 33.152C1024-72.64 766.4-128 512-128c-254.464 0-512 55.36-512 161.152 0 93.824 198.4 132.992 283.776 145.408a23.232 23.232 0 0 0 26.688-19.392 23.616 23.616 0 0 0-20.096-27.392C112.64 105.856 46.4 57.6 46.4 33.152c0-46.464 181.376-113.92 465.6-113.92 284.16 0 465.536 67.456 465.536 113.92 0 24.512-66.816 73.152-246.208 98.944a23.552 23.552 0 0 0-19.52 26.88c1.92 12.8 13.44 21.632 25.984 19.968 86.08-12.416 286.208-51.392 286.208-145.792zM413.824 594.752c0 55.232 43.968 100.032 98.176 100.032s98.176-44.8 98.176-100.032S566.208 494.72 512 494.72c-54.208 0.064-98.112 44.8-98.176 100.032z m242.752 0c0 81.344-64.704 147.328-144.576 147.328-79.808 0-144.576-65.92-144.576-147.328C367.424 513.408 432.128 447.36 512 447.36c79.744 0 144.64 66.112 144.64 147.328zM512 848.64c142.784 0 258.944-118.336 258.944-263.808 0-201.6-200.576-428.032-259.136-489.856-58.752 60.736-258.752 282.688-258.752 489.856C253.056 730.368 369.28 848.704 512 848.704z m-15.872-804.416l16-15.232 15.872 15.488c11.84 11.52 289.344 285.248 289.344 540.352C817.344 756.48 680.384 896 512 896S206.72 756.48 206.72 584.96c0-262.016 277.632-529.28 289.408-540.608z"  horiz-adv-x="1024" />

    
    <glyph glyph-name="award-amount" unicode="&#58916;" d="M511.998228-128c-360.761828 0-511.998228 116.578058-511.998228 356.193229C0 426.612234 171.558791 633.695825 379.548225 699.07406h264.900006C852.437665 633.695825 1023.996455 426.612234 1023.996455 228.193229 1023.917686-11.421942 872.641902-128 511.998228-128z m155.214232 404.084755c23.000536 0 41.629394 16.777788 41.629394 37.533409 0 20.716236-18.628859 37.494024-41.629394 37.494024v0.196922H583.284135c0.118153 0.78769-0.118153 1.535995 0 2.402453l98.343044 90.663071c16.029483 16.383943 7.876896 29.774666-8.34951 44.622615-16.305174 14.847949-42.929082 17.998707-56.201651 5.001829l-84.558477-81.32895-91.45076 82.352946c-11.460883 10.476271-34.02819 7.167975-50.254595-7.483051-16.187021-14.651026-19.928546-34.894648-8.388894-45.37092l93.498753-84.282785a17.723016 17.723016 0 0 1-3.544603-6.655977h-75.97266v-0.118153h-0.315076c-23.000536 0-41.629394-16.777788-41.629395-37.533409 0-20.75562 18.628859-37.572793 41.629395-37.572793l0.236307 0.078769v-0.078769h83.298173v-37.454639h-83.219404v-0.118154h-0.315076c-23.000536 0-41.629394-16.817173-41.629395-37.533408 0-20.75562 18.628859-37.572793 41.629395-37.572793h83.495095v-37.848485h0.905843c-5.828903-25.442373 12.327342-50.333364 40.566014-55.5715 28.199287-5.238136 55.768422 11.106423 61.597325 36.588181a42.535237 42.535237 0 0 1 0 18.983319h0.511998v37.848485h84.125248c23.000536 0 41.629394 16.817173 41.629394 37.572793 0 20.716236-18.628859 37.533409-41.629394 37.533408v0.118154H583.284135v37.454639h84.007094l-0.078769 0.078769zM708.920623 836.919737l-9.137199-10.397503c-0.157538-0.118153-0.393845-0.393845-0.511998-0.590767L622.274769 738.458539H362.494745l-76.799734 87.276006c-0.551383 0.590767-0.945227 1.181534-1.535995 1.654148l-8.27074 9.491659 1.457225 2.678145C276.557812 842.000335 275.691353 844.284634 275.691353 846.923394c0 12.603033 8.664585 23.158074 20.795005 27.490367L297.510355 876.304216s106.456247 19.377164 194.874402 19.692239c92.553526 0.315076 194.835018-19.69224 194.835018-19.692239l1.023996-1.851071c12.445495-4.411062 20.637467-15.281178 20.676852-27.450982 0-2.520607-0.905843-4.844291-1.575379-7.167975l1.575379-2.914451z"  horiz-adv-x="1024" />

    
    <glyph glyph-name="punch-success" unicode="&#58917;" d="M983.945846 780.288h-199.68V896H713.649231v-114.688H315.352615V896H244.696615v-114.688h-199.68C19.456 781.312 0 761.856 0 736.256V-76.8c0-31.744 19.456-51.2 45.056-51.2h932.745846c25.6 0 45.056 19.456 45.056 45.056v819.2c6.144 24.576-13.312 44.032-38.912 44.032zM726.961231 307.2L488.369231 64.512l-25.6-25.6c-13.312-12.288-38.912-12.288-51.2 0L295.896615 153.6c-13.312 12.288-13.312 37.888 0 51.2 13.312 12.288 38.912 12.288 51.2 0l90.112-89.088 238.552616 236.544c13.312 12.288 38.912 12.288 51.2 0 19.456-13.312 19.456-31.744 0-45.056z m231.384615 217.088H70.616615V710.656h174.08V640h70.656V710.656H713.649231V640h70.656V710.656h174.08v-186.368z"  horiz-adv-x="1024" />

    
    <glyph glyph-name="money-red" unicode="&#58918;" d="M813.549037-128H209.882074C136.00237-128 75.851852-66.787556 75.851852 8.38163V691.427556L478.511407 555.045926h66.977186L948.148148 691.427556v-682.477037C948.148148-66.787556 887.99763-128 813.549037-128z m-266.315852 343.87437h97.355852c24.651852 0 33.223111 12.818963 33.792 27.951408 0.568889 13.425778-12.022519 39.063704-34.360889 39.632592h-97.355852v23.893334s73.879704 76.951704 93.335704 94.435555c18.925037 18.052741 24.082963 31.478519 12.022519 46.042074-12.022519 14.563556-33.223111 13.994667-48.658963 0.568889-15.473778-13.387852-91.060148-84.498963-91.060149-84.498963S447.525926 432.090074 433.265778 445.44c-12.629333 12.250074-39.556741 24.500148-53.854815 7.585185-14.904889-17.483852-3.413333-39.063704 6.295704-48.355555 9.178074-9.329778 90.491259-96.749037 90.491259-96.749037v-26.244741H374.821926c-14.904889 0-28.065185-27.382519-28.065185-41.377185 0.568889-14.563556 12.022519-25.637926 27.496296-25.637926 16.042667 0 101.376 0.568889 101.376 0.568889v-73.424593H370.232889c-14.866963 0-27.496296-15.17037-28.065185-29.733926-0.568889-14.563556 11.45363-33.792 28.065185-33.792h104.827259s0-25.031111 0.568889-35.536592c1.137778-23.324444 16.611556-32.654222 36.67437-33.223112 20.024889-0.606815 34.360889 16.877037 34.360889 32.047408 0 12.818963-0.568889 36.712296-0.568889 36.712296h103.651556c16.611556 0 28.634074 16.914963 28.065185 33.792-0.568889 17.483852-10.884741 30.340741-36.067555 30.340741h-95.649186l1.137778 73.424592z m-1.744592 407.362371h-66.977186L75.851852 759.61837C75.851852 834.787556 136.00237 896 209.882074 896H813.511111c73.879704 0 134.030222-61.212444 134.030222-136.38163L545.488593 623.236741z"  horiz-adv-x="1024" />

    
    <glyph glyph-name="user" unicode="&#58919;" d="M796.0576 116.77696c-133.69344 20.97152-177.52064 67.42016-177.5616 67.42016l-3.97312 4.25984v-0.08192c-14.25408 13.59872-19.08736 37.6832-20.43904 58.61376 86.8352 66.88768 154.29632 193.7408 154.29632 335.6672 0 227.328-152.04352 310.272-271.48288 310.272-119.3984 0-273.03936-82.90304-273.03936-310.272 0-141.96736 69.09952-268.77952 156.0576-335.70816-1.35168-20.84864-6.18496-44.93312-20.52096-58.5728l-3.11296-3.31776c-0.45056-0.45056-44.11392-47.26784-178.42176-68.28032-18.92352-0.65536-97.81248-8.06912-131.85024-84.82816C7.3728-10.28096 14.9504-41.1648 24.61696-59.5968c22.9376-43.74528 73.5232-49.27488 86.016-50.05312h727.20384c17.6128 0 76.88192 3.6864 99.1232 52.14208 9.4208 20.48 14.45888 54.31296-14.7456 98.9184-37.56032 57.18016-95.31392 74.1376-126.1568 75.3664z m339.02592 36.37248c-26.37824 41.04192-66.9696 53.16608-88.63744 54.0672-93.92128 14.99136-124.7232 48.3328-124.80512 48.3328l-2.74432 2.99008c-9.95328 9.74848-13.43488 27.07456-14.336 42.14784 61.0304 48.00512 104.28416 132.3008 104.28416 234.20928 0 163.26656-105.472 238.67392-189.39904 238.67392-16.13824 0-32.64512-2.4576-48.82432-7.70048 4.42368-12.86144 8.31488-26.2144 11.75552-40.01792h-10.32192s58.368-191.8976-11.42784-355.5328c-3.2768 3.56352-6.63552 6.71744-9.8304 10.77248a371.75296 371.75296 0 0 0-34.93888-57.67168c7.5776-8.27392 15.5648-16.05632 24.08448-22.7328-0.90112-14.99136-4.38272-32.27648-14.49984-42.06592l-2.12992-2.4576c-0.2048-0.16384-17.28512-18.6368-64.3072-34.28352 34.2016-3.6864 70.00064-9.0112 104.57088-16.46592 0.90112 0.90112 1.67936 1.8432 2.33472 2.4576 1.92512 2.00704 3.39968 4.096 5.16096 6.144 8.27392-4.34176 16.50688-8.8064 24.69888-13.312 53.4528-29.36832 149.83168-77.66016 165.6832-95.4368h-2.4576a334.6432 334.6432 0 0 0 44.68736-71.63904h76.1856c12.36992 0 49.93024 13.7216 65.536 48.37376h0.04096c6.5536 14.82752 10.19904 39.1168-10.36288 71.14752z"  horiz-adv-x="1187" />

    
    <glyph glyph-name="percent" unicode="&#58934;" d="M679.936 407.552h102.4l199.68 172.032c-9.216 18.432-18.432 41.984-27.648 60.416l-274.432-232.448zM535.552 896v-83.968L619.52 881.664C590.848 890.88 563.2 896 535.552 896z m422.912-488.448l60.416 51.2c-5.12 23.552-9.216 46.08-18.432 69.632l-139.264-120.832h97.28zM791.552 812.032l-256-219.136v-88.064l312.32 265.216c-19.456 18.432-37.888 28.672-56.32 41.984zM679.936 868.352l-144.384-120.832v-88.064l208.896 180.224c-18.432 10.24-41.984 19.456-64.512 28.672z m246.784-182.272c-14.336 18.432-27.648 32.768-41.984 51.2l-349.184-296.96v-27.648h69.632l321.536 273.408zM488.448 896C219.136 881.664 0 658.432 0 384c0-120.832 41.984-228.352 107.52-316.416l381.952 325.632V896h-1.024z m32.768-535.552L139.264 34.81600000000003C232.448-62.464000000000055 363.52-128 512-128c274.432 0 497.664 219.136 512 488.448H521.216z"  horiz-adv-x="1024" />

    
    <glyph glyph-name="money-fill" unicode="&#58920;" d="M327.115034 646.461793l374.219035 1.024c17.302069 1.871448 80.966621 70.091034 95.691034 142.230069 14.053517 68.219586-28.389517 89.829517-134.779586 89.829517-106.707862 0-84.603586-95.691034-106.142896-95.691034-12.429241 0-23.728552 73.480828-72.315587 104.659862-34.710069 22.245517-82.767448-35.027862-128.776827-35.451586-53.601103-0.459034-123.656828 5.826207-123.656828-67.124966 0-60.486621 77.470897-139.475862 95.761655-139.475862z m-18.855724 0c-13.912276 0-25.246897-5.579034-25.246896-12.358621 0-6.850207 11.29931-12.358621 25.282207-12.35862h388.555034c14.053517 0 25.282207 5.508414 25.282207 12.35862 0 6.779586-11.29931 12.358621-25.282207 12.358621H308.25931z m417.72138-49.434483H287.77931C145.513931 520.086069 24.717241 369.946483 24.717241 172.385103c0-217.723586 225.703724-267.405241 483.433931-267.405241 257.588966 0 472.311172 52.118069 472.311173 269.982897-0.141241 182.942897-104.41269 341.168552-254.446345 422.135172z m-146.184828-255.894069c17.054897 0 30.825931-11.793655 30.825931-26.376827 0-14.547862-13.771034-26.341517-30.825931-26.341517h-61.687172v-26.412138h61.687172c17.054897 0 30.825931-11.793655 30.825931-26.376828s-13.771034-26.412138-30.825931-26.412138h-61.687172v-55.437241c0-14.547862-13.806345-26.341517-30.861242-26.341518-16.984276 0-30.825931 11.793655-30.825931 26.341518v55.437241h-61.687172c-17.054897 0-30.861241 11.828966-30.861242 26.412138s13.806345 26.376828 30.861242 26.376828h61.687172v26.412138h-61.687172c-17.054897 0-30.861241 11.793655-30.861242 26.341517 0 14.583172 13.806345 26.376828 30.861242 26.376827h61.687172v15.395311l-86.510345 71.574069a23.728552 23.728552 0 0 0-0.706206 37.323034 34.639448 34.639448 0 0 0 43.608275 0.600276l76.870621-63.593931 76.83531 63.593931a34.710069 34.710069 0 0 0 43.643587-0.600276c11.793655-10.487172 11.511172-27.188966-0.741518-37.323034l-91.312551-75.493518v-11.440551h61.687172z"  horiz-adv-x="1024" />

    
    <glyph glyph-name="cancel-o" unicode="&#58925;" d="M510.5152 345.4976L378.368 213.2992a27.4944 27.4944 0 0 0-38.912 38.912l132.2496 132.1984-132.2496 132.2496a27.4944 27.4944 0 0 0 38.912 38.912L510.464 423.2704l132.2496 132.1984a27.4944 27.4944 0 0 0 38.912-38.912L549.376 384.4608l132.1984-132.2496a27.4944 27.4944 0 0 0-38.912-38.912l-132.1984 132.2496z m0 531.712a492.8 492.8 0 1 0 0-985.6 492.8 492.8 0 0 0 0 985.6z m0-930.6112a437.76 437.76 0 1 1 0 875.6224 437.76 437.76 0 0 1 0-875.6224z"  horiz-adv-x="1024" />

    
    <glyph glyph-name="notice-b" unicode="&#58926;" d="M528.64-87.03999999999996c-21.333333 0-41.898667 7.936-57.856 22.272L258.730667 123.56266700000003H89.173333A88.746667 88.746667 0 0 0 1.024 212.650667v383.146666a88.746667 88.746667 0 0 0 88.149333 89.173334h169.557334l4.949333 4.352L470.784 873.301333A86.442667 86.442667 0 0 0 565.333333 887.466667c31.658667-14.250667 52.053333-46.08 51.797334-81.152v-804.010667c0.256-35.072-20.138667-66.986667-51.797334-81.237333-11.946667-5.461333-24.32-8.106667-36.693333-8.106667z m-439.466667 690.517333a7.594667 7.594667 0 0 1-7.509333-7.68v-383.146666c0-4.266667 3.413333-7.68 7.509333-7.68H273.92a40.106667 40.106667 0 0 0 26.624-10.069334L523.946667-3.413332999999966c2.218667-2.133333 5.461333-2.56 8.106666-1.194667 4.437333 2.048 4.437333 5.717333 4.437334 6.997333V806.314667c0 1.194667 0 4.864-4.437334 6.912a6.912 6.912 0 0 1-8.106666-1.194667L300.544 613.5466670000001a40.106667 40.106667 0 0 0-26.624-10.24H89.173333v0.085333z m766.634667-652.714666a40.96 40.96 0 1 0-25.856 72.106666 497.152 497.152 0 0 1 177.152 381.44 493.568 493.568 0 0 1-155.136 361.045334 41.045333 41.045333 0 0 0-1.706667 57.685333 40.021333 40.021333 0 0 0 57.002667 1.706667 574.805333 574.805333 0 0 0 180.394667-420.522667c0-171.946667-75.093333-333.824-206.08-444.074667a40.106667 40.106667 0 0 0-25.770667-9.386666zM724.821333 86.61333300000001a40.96 40.96 0 1 0-24.490666 73.216 306.517333 306.517333 0 0 1 120.32 244.48 306.432 306.432 0 0 1-120.32 244.48 41.045333 41.045333 0 0 0-7.68 57.173334 40.106667 40.106667 0 0 0 56.576 7.68 387.669333 387.669333 0 0 0 152.064-309.333334c0-122.197333-55.466667-234.922667-152.064-309.333333a39.765333 39.765333 0 0 0-24.405334-8.362667z"  horiz-adv-x="1109" />

    


  </font>
</defs>
</svg>
